<svg xmlns="http://www.w3.org/2000/svg" xmlns:xlink="http://www.w3.org/1999/xlink" width="947" zoomAndPan="magnify" viewBox="0 0 710.25 207.000001" height="276" preserveAspectRatio="xMidYMid meet" version="1.0"><defs><g/><clipPath id="b773b38053"><path d="M 13 40 L 158.886719 40 L 158.886719 166.796875 L 13 166.796875 Z M 13 40 " clip-rule="nonzero"/></clipPath></defs><g fill="#3658bf" fill-opacity="1"><g transform="translate(164.300884, 154.163564)"><g><path d="M 67.699219 -1.589844 L 33.636719 -41.703125 L 67.382812 -83.296875 C 68.125 -84.039062 67.59375 -84.890625 66.425781 -84.890625 L 49.128906 -84.890625 C 48.917969 -84.890625 48.28125 -84.675781 48.175781 -84.570312 L 16.234375 -45.308594 L 16.234375 -83.933594 C 16.234375 -84.359375 15.8125 -84.890625 15.175781 -84.890625 L 1.167969 -84.890625 C 0.53125 -84.890625 0 -84.359375 0 -83.933594 L 0 -5.199219 C 0 -5.199219 20.691406 -28.648438 22.8125 -30.878906 L 47.539062 -0.316406 C 47.644531 -0.210938 48.28125 0 48.492188 0 L 66.746094 0 C 67.804688 0 68.335938 -0.742188 67.699219 -1.589844 Z M 67.699219 -1.589844 "/></g></g></g><g fill="#3658bf" fill-opacity="1"><g transform="translate(245.266216, 154.163564)"><g><path d="M 45.839844 -15.8125 L 0 -15.8125 L 0 -0.953125 C 0 -0.53125 0.53125 0 1.167969 0 L 45.839844 0 C 46.582031 0 47.007812 -0.53125 47.007812 -0.953125 L 47.007812 -14.75 C 47.007812 -15.28125 46.582031 -15.8125 45.839844 -15.8125 Z M 16.234375 -32.046875 L 16.234375 -83.933594 C 16.234375 -84.359375 15.8125 -84.890625 15.175781 -84.890625 L 1.167969 -84.890625 C 0.53125 -84.890625 0 -84.359375 0 -83.933594 L 0 -32.046875 Z M 16.234375 -32.046875 "/></g></g></g><g fill="#3658bf" fill-opacity="1"><g transform="translate(304.266222, 154.163564)"><g><path d="M 40.324219 -15.8125 L 16.234375 -15.8125 L 16.234375 -34.910156 L 49.554688 -34.910156 C 50.191406 -34.910156 50.722656 -35.441406 50.722656 -35.867188 L 50.722656 -49.34375 C 50.722656 -49.871094 50.191406 -50.296875 49.554688 -50.296875 L 16.234375 -50.296875 L 16.234375 -69.503906 L 40.324219 -69.503906 L 40.324219 -84.890625 L 1.167969 -84.890625 C 0.53125 -84.890625 0 -84.359375 0 -83.933594 L 0 -0.953125 C 0 -0.53125 0.53125 0 1.167969 0 L 40.324219 0 Z M 40.324219 -15.8125 "/></g></g></g><g fill="#3658bf" fill-opacity="1"><g transform="translate(367.086302, 154.163564)"><g><path d="M 75.976562 -20.480469 L 92.105469 -20.480469 L 92.105469 -83.933594 C 92.105469 -84.359375 91.679688 -84.890625 90.9375 -84.890625 L 76.929688 -84.890625 C 76.507812 -84.890625 75.976562 -84.570312 75.765625 -84.253906 L 46.796875 -22.070312 L 16.339844 -84.253906 C 16.234375 -84.570312 15.597656 -84.890625 15.28125 -84.890625 L 1.0625 -84.890625 C 0.316406 -84.890625 0 -84.359375 0 -83.933594 L 0 -0.953125 C 0 -0.53125 0.316406 0 1.0625 0 L 15.066406 0 C 15.703125 0 16.234375 -0.53125 16.234375 -0.953125 L 16.234375 -48.597656 L 39.261719 -4.03125 C 39.367188 -3.714844 40.003906 -3.394531 40.324219 -3.394531 L 53.375 -3.394531 C 53.691406 -3.394531 54.222656 -3.714844 54.328125 -4.03125 L 75.976562 -47.433594 Z M 75.976562 -20.480469 "/></g></g></g><g fill="#3658bf" fill-opacity="1"><g transform="translate(473.412467, 154.163564)"><g><path d="M 75.976562 -20.480469 L 92.105469 -20.480469 L 92.105469 -83.933594 C 92.105469 -84.359375 91.679688 -84.890625 90.9375 -84.890625 L 76.929688 -84.890625 C 76.507812 -84.890625 75.976562 -84.570312 75.765625 -84.253906 L 46.796875 -22.070312 L 16.339844 -84.253906 C 16.234375 -84.570312 15.597656 -84.890625 15.28125 -84.890625 L 1.0625 -84.890625 C 0.316406 -84.890625 0 -84.359375 0 -83.933594 L 0 -0.953125 C 0 -0.53125 0.316406 0 1.0625 0 L 15.066406 0 C 15.703125 0 16.234375 -0.53125 16.234375 -0.953125 L 16.234375 -48.597656 L 39.261719 -4.03125 C 39.367188 -3.714844 40.003906 -3.394531 40.324219 -3.394531 L 53.375 -3.394531 C 53.691406 -3.394531 54.222656 -3.714844 54.328125 -4.03125 L 75.976562 -47.433594 Z M 75.976562 -20.480469 "/></g></g></g><g fill="#3658bf" fill-opacity="1"><g transform="translate(579.738617, 154.163564)"><g><path d="M 40.324219 -15.8125 L 16.234375 -15.8125 L 16.234375 -34.910156 L 49.554688 -34.910156 C 50.191406 -34.910156 50.722656 -35.441406 50.722656 -35.867188 L 50.722656 -49.34375 C 50.722656 -49.871094 50.191406 -50.296875 49.554688 -50.296875 L 16.234375 -50.296875 L 16.234375 -69.503906 L 40.324219 -69.503906 L 40.324219 -84.890625 L 1.167969 -84.890625 C 0.53125 -84.890625 0 -84.359375 0 -83.933594 L 0 -0.953125 C 0 -0.53125 0.53125 0 1.167969 0 L 40.324219 0 Z M 40.324219 -15.8125 "/></g></g></g><g fill="#3658bf" fill-opacity="1"><g transform="translate(642.558683, 154.163564)"><g><path d="M 38.941406 -47.113281 C 32.894531 -49.980469 26.953125 -49.980469 26.421875 -49.980469 C 21.011719 -49.980469 15.8125 -53.164062 15.8125 -59.316406 C 15.8125 -66.109375 20.585938 -69.609375 26.421875 -69.609375 C 31.941406 -69.609375 36.609375 -66.746094 36.820312 -60.695312 C 36.820312 -60.378906 37.351562 -59.847656 37.988281 -59.847656 L 51.253906 -59.847656 C 51.996094 -59.847656 52.527344 -60.378906 52.417969 -60.695312 C 52.207031 -75.128906 40.960938 -84.890625 26.421875 -84.890625 C 12.839844 -84.890625 0 -75.234375 0 -59.316406 C 0 -49.449219 4.988281 -41.914062 13.792969 -37.882812 C 19.949219 -35.015625 25.679688 -35.015625 26.421875 -35.015625 C 31.195312 -34.804688 37.03125 -30.984375 37.03125 -24.722656 C 37.03125 -19.101562 32.046875 -15.28125 26.421875 -15.28125 C 26.421875 -15.28125 26.421875 -15.28125 26.316406 -15.28125 L 26.316406 0 C 26.421875 0 26.421875 0 26.421875 0 C 40.003906 0 52.738281 -8.808594 52.738281 -24.722656 C 52.738281 -34.699219 47.855469 -42.976562 38.941406 -47.113281 Z M 38.941406 -47.113281 "/></g></g></g><g clip-path="url(#b773b38053)"><path fill="#f26052" d="M 158.917969 75.601562 C 158.917969 56.191406 143.125 40.398438 123.714844 40.398438 C 115.144531 40.398438 106.886719 43.515625 100.460938 49.171875 C 99.441406 50.070312 98.480469 51.023438 97.582031 52.019531 C 97.179688 52.464844 97.152344 53.136719 97.515625 53.613281 C 98.511719 54.925781 99.480469 56.222656 100.429688 57.492188 C 102.640625 60.460938 104.671875 63.144531 106.597656 65.511719 C 107.128906 66.164062 108.136719 66.109375 108.609375 65.410156 C 112.972656 58.960938 121.355469 55.441406 130.132812 58.476562 C 135.019531 60.167969 138.925781 63.957031 140.707031 68.8125 C 145.425781 81.691406 135.960938 93.832031 123.714844 93.832031 C 122.359375 93.832031 121.042969 93.683594 119.769531 93.402344 C 119.746094 93.394531 119.71875 93.390625 119.691406 93.386719 C 113.367188 92.523438 107.488281 89.628906 101.824219 84.601562 C 97.113281 80.417969 93.09375 75.304688 88.984375 69.835938 C 88.972656 69.914062 88.957031 69.992188 88.945312 70.066406 C 88.464844 69.460938 87.683594 68.484375 86.726562 67.285156 C 84.070312 63.957031 80.054688 58.925781 77.941406 56.222656 C 74.175781 51.402344 69.878906 47.59375 65.175781 44.898438 C 57.179688 40.316406 48.300781 39.167969 39.089844 41.605469 C 27.183594 44.761719 17.746094 53.921875 14.53125 65.808594 C 11.105469 78.453125 14.605469 90.457031 22.0625 98.875 C 22.097656 98.917969 22.132812 98.960938 22.171875 99.003906 L 79.304688 164.019531 C 80.871094 165.796875 83.117188 166.820312 85.488281 166.832031 C 85.5 166.832031 85.511719 166.832031 85.523438 166.832031 C 87.878906 166.832031 90.121094 165.828125 91.691406 164.074219 L 148.597656 100.503906 C 148.613281 100.484375 148.628906 100.46875 148.644531 100.453125 C 148.789062 100.308594 148.933594 100.164062 149.078125 100.011719 C 155.421875 93.421875 158.917969 84.753906 158.917969 75.601562 Z M 84.648438 145.019531 L 55.574219 111.933594 C 54.949219 111.222656 55.308594 110.097656 56.234375 109.886719 C 61.652344 108.65625 66.652344 106.164062 70.863281 102.683594 C 71.402344 102.238281 71.480469 101.433594 71.019531 100.898438 C 67.710938 97.050781 64.789062 93.167969 62.144531 89.5625 C 61.710938 88.96875 60.863281 88.882812 60.308594 89.363281 C 55.621094 93.410156 48.859375 95.113281 41.859375 92.636719 C 37.03125 90.929688 33.183594 87.160156 31.421875 82.351562 C 26.703125 69.472656 36.167969 57.332031 48.414062 57.332031 C 53.199219 57.332031 57.554688 59.183594 60.8125 62.210938 C 61.730469 62.953125 62.648438 63.78125 63.566406 64.699219 C 67.046875 68.1875 70.371094 72.742188 73.886719 77.566406 C 76.261719 80.824219 78.761719 84.257812 81.496094 87.621094 C 81.503906 87.597656 81.515625 87.574219 81.523438 87.546875 C 85.761719 92.605469 89.566406 96.453125 93.460938 99.625 C 100.308594 105.203125 107.488281 108.671875 115.230469 110.113281 C 116.1875 110.292969 116.578125 111.453125 115.929688 112.175781 L 86.523438 145.027344 C 86.023438 145.585938 85.144531 145.582031 84.648438 145.019531 Z M 84.648438 145.019531 " fill-opacity="1" fill-rule="nonzero"/></g></svg>