<svg xmlns="http://www.w3.org/2000/svg" xmlns:xlink="http://www.w3.org/1999/xlink" width="48" zoomAndPan="magnify" viewBox="0 0 36 36.000001" height="48" preserveAspectRatio="xMidYMid meet" version="1.0"><defs><clipPath id="d894b91ec7"><path d="M 1 2.628906 L 35.058594 2.628906 L 35.058594 32.546875 L 1 32.546875 Z M 1 2.628906 " clip-rule="nonzero"/></clipPath></defs><g clip-path="url(#d894b91ec7)"><path fill="#f26052" d="M 35.230469 11.125 C 35.230469 6.597656 31.546875 2.914062 27.019531 2.914062 C 25.023438 2.914062 23.097656 3.640625 21.597656 4.960938 C 21.359375 5.171875 21.136719 5.390625 20.925781 5.625 C 20.832031 5.730469 20.828125 5.886719 20.910156 5.996094 C 21.144531 6.304688 21.371094 6.605469 21.589844 6.902344 C 22.105469 7.59375 22.582031 8.21875 23.03125 8.769531 C 23.152344 8.921875 23.386719 8.910156 23.5 8.746094 C 24.515625 7.242188 26.472656 6.421875 28.519531 7.132812 C 29.65625 7.523438 30.570312 8.410156 30.984375 9.539062 C 32.085938 12.542969 29.878906 15.375 27.019531 15.375 C 26.707031 15.375 26.398438 15.339844 26.101562 15.273438 C 26.097656 15.273438 26.089844 15.273438 26.082031 15.273438 C 24.609375 15.070312 23.238281 14.394531 21.917969 13.222656 C 20.816406 12.246094 19.878906 11.054688 18.921875 9.78125 C 18.917969 9.796875 18.917969 9.816406 18.914062 9.832031 C 18.800781 9.691406 18.621094 9.464844 18.398438 9.183594 C 17.777344 8.410156 16.839844 7.234375 16.347656 6.605469 C 15.46875 5.480469 14.46875 4.59375 13.371094 3.964844 C 11.507812 2.894531 9.433594 2.628906 7.289062 3.195312 C 4.511719 3.933594 2.3125 6.070312 1.5625 8.839844 C 0.761719 11.789062 1.578125 14.589844 3.316406 16.550781 C 3.324219 16.5625 3.332031 16.570312 3.34375 16.582031 L 16.664062 31.742188 C 17.03125 32.15625 17.554688 32.394531 18.105469 32.398438 C 18.109375 32.398438 18.113281 32.398438 18.117188 32.398438 C 18.664062 32.398438 19.1875 32.164062 19.554688 31.753906 L 32.824219 16.929688 C 32.828125 16.925781 32.832031 16.921875 32.835938 16.917969 C 32.867188 16.886719 32.902344 16.851562 32.9375 16.816406 C 34.414062 15.28125 35.230469 13.257812 35.230469 11.125 Z M 17.910156 27.3125 L 11.132812 19.597656 C 10.984375 19.429688 11.070312 19.167969 11.285156 19.121094 C 12.550781 18.832031 13.714844 18.25 14.695312 17.441406 C 14.824219 17.335938 14.839844 17.148438 14.734375 17.023438 C 13.960938 16.125 13.28125 15.222656 12.664062 14.378906 C 12.5625 14.242188 12.367188 14.222656 12.234375 14.332031 C 11.144531 15.277344 9.566406 15.671875 7.933594 15.097656 C 6.808594 14.699219 5.910156 13.820312 5.5 12.699219 C 4.398438 9.695312 6.605469 6.863281 9.460938 6.863281 C 10.578125 6.863281 11.59375 7.296875 12.351562 8 C 12.566406 8.175781 12.78125 8.367188 12.996094 8.582031 C 13.808594 9.394531 14.582031 10.457031 15.402344 11.582031 C 15.957031 12.34375 16.539062 13.140625 17.175781 13.925781 C 17.179688 13.921875 17.179688 13.914062 17.183594 13.910156 C 18.171875 15.089844 19.058594 15.988281 19.964844 16.726562 C 21.5625 18.027344 23.238281 18.835938 25.042969 19.171875 C 25.265625 19.214844 25.355469 19.484375 25.207031 19.652344 L 18.347656 27.3125 C 18.230469 27.445312 18.027344 27.441406 17.910156 27.3125 Z M 17.910156 27.3125 " fill-opacity="1" fill-rule="nonzero"/></g></svg>