<svg xmlns="http://www.w3.org/2000/svg" xmlns:xlink="http://www.w3.org/1999/xlink" width="190" zoomAndPan="magnify" viewBox="0 0 142.5 30.000001" height="40" preserveAspectRatio="xMidYMid meet" version="1.0"><defs><g/><clipPath id="34dce4034a"><path d="M 10.566406 6.300781 L 30.164062 6.300781 L 30.164062 22.996094 L 10.566406 22.996094 Z M 10.566406 6.300781 " clip-rule="nonzero"/></clipPath></defs><g fill="#3658bf" fill-opacity="1"><g transform="translate(31.707115, 20.806785)"><g><path d="M 7.007812 -3.542969 C 7.53125 -3.542969 7.859375 -3.523438 7.859375 -2.980469 L 7.859375 0 L 10.164062 0 L 10.164062 -3.117188 C 10.164062 -3.8125 10.164062 -4.433594 9.582031 -4.625 C 10.164062 -4.820312 10.164062 -5.4375 10.164062 -6.136719 L 10.164062 -9.253906 L 7.859375 -9.253906 L 7.859375 -6.292969 C 7.859375 -5.75 7.53125 -5.730469 7.007812 -5.730469 L 3.214844 -5.730469 L 3.214844 -12.910156 L 0.910156 -12.910156 L 0.910156 0 L 3.214844 0 L 3.214844 -3.542969 Z M 7.007812 -3.542969 "/></g></g></g><g fill="#3658bf" fill-opacity="1"><g transform="translate(44.515946, 20.806785)"><g><path d="M 3.214844 0 L 3.214844 -12.910156 L 0.910156 -12.910156 L 0.910156 0 Z M 3.214844 0 "/></g></g></g><g fill="#3658bf" fill-opacity="1"><g transform="translate(50.379135, 20.806785)"><g><path d="M 0.8125 -1.742188 C 0.8125 -0.117188 1.9375 0 3.136719 0 L 10.066406 0 L 10.066406 -2.1875 L 3.96875 -2.1875 C 3.445312 -2.1875 3.117188 -2.207031 3.117188 -2.75 L 3.117188 -3.542969 L 10.066406 -3.542969 L 10.066406 -7.511719 C 10.066406 -9.136719 8.941406 -9.253906 7.742188 -9.253906 L 3.136719 -9.253906 C 1.9375 -9.253906 0.8125 -9.136719 0.8125 -7.511719 Z M 3.117188 -6.503906 C 3.117188 -7.046875 3.445312 -7.066406 3.96875 -7.066406 L 6.910156 -7.066406 C 7.433594 -7.066406 7.761719 -7.046875 7.761719 -6.503906 L 7.761719 -5.730469 L 3.117188 -5.730469 Z M 3.117188 -6.503906 "/></g></g></g><g fill="#3658bf" fill-opacity="1"><g transform="translate(62.994499, 20.806785)"><g><path d="M 0.910156 -9.253906 L 0.910156 0 L 3.214844 0 L 3.214844 -7.066406 L 7.859375 -7.066406 L 7.859375 0 L 10.164062 0 L 10.164062 -7.066406 L 13.957031 -7.066406 C 14.480469 -7.066406 14.808594 -7.046875 14.808594 -6.503906 L 14.808594 0 L 17.113281 0 L 17.113281 -7.511719 C 17.113281 -9.136719 15.988281 -9.253906 14.789062 -9.253906 Z M 0.910156 -9.253906 "/></g></g></g><g fill="#3658bf" fill-opacity="1"><g transform="translate(82.652241, 20.806785)"><g><path d="M 0.910156 -9.253906 L 0.910156 0 L 3.214844 0 L 3.214844 -7.066406 L 7.859375 -7.066406 L 7.859375 0 L 10.164062 0 L 10.164062 -7.066406 L 13.957031 -7.066406 C 14.480469 -7.066406 14.808594 -7.046875 14.808594 -6.503906 L 14.808594 0 L 17.113281 0 L 17.113281 -7.511719 C 17.113281 -9.136719 15.988281 -9.253906 14.789062 -9.253906 Z M 0.910156 -9.253906 "/></g></g></g><g fill="#3658bf" fill-opacity="1"><g transform="translate(102.309983, 20.806785)"><g><path d="M 0.8125 -1.742188 C 0.8125 -0.117188 1.9375 0 3.136719 0 L 10.066406 0 L 10.066406 -2.1875 L 3.96875 -2.1875 C 3.445312 -2.1875 3.117188 -2.207031 3.117188 -2.75 L 3.117188 -3.542969 L 10.066406 -3.542969 L 10.066406 -7.511719 C 10.066406 -9.136719 8.941406 -9.253906 7.742188 -9.253906 L 3.136719 -9.253906 C 1.9375 -9.253906 0.8125 -9.136719 0.8125 -7.511719 Z M 3.117188 -6.503906 C 3.117188 -7.046875 3.445312 -7.066406 3.96875 -7.066406 L 6.910156 -7.066406 C 7.433594 -7.066406 7.761719 -7.046875 7.761719 -6.503906 L 7.761719 -5.730469 L 3.117188 -5.730469 Z M 3.117188 -6.503906 "/></g></g></g><g fill="#3658bf" fill-opacity="1"><g transform="translate(114.925344, 20.806785)"><g><path d="M 0.8125 -5.285156 C 0.8125 -3.660156 1.9375 -3.542969 3.136719 -3.542969 L 6.910156 -3.542969 C 7.433594 -3.542969 7.761719 -3.523438 7.761719 -2.980469 L 7.761719 -2.75 C 7.761719 -2.207031 7.433594 -2.1875 6.910156 -2.1875 L 0.8125 -2.1875 L 0.8125 0 L 7.742188 0 C 8.941406 0 10.066406 -0.117188 10.066406 -1.742188 L 10.066406 -3.988281 C 10.066406 -5.613281 8.921875 -5.730469 7.722656 -5.730469 L 3.96875 -5.730469 C 3.445312 -5.730469 3.117188 -5.75 3.117188 -6.292969 L 3.117188 -6.503906 C 3.117188 -7.046875 3.445312 -7.066406 3.96875 -7.066406 L 10.066406 -7.066406 L 10.066406 -9.253906 L 3.136719 -9.253906 C 1.9375 -9.253906 0.8125 -9.136719 0.8125 -7.53125 Z M 0.8125 -5.285156 "/></g></g></g><g clip-path="url(#34dce4034a)"><path fill="#3658bf" d="M 30.140625 11.128906 C 30.140625 8.558594 28.050781 6.46875 25.476562 6.46875 C 24.34375 6.46875 23.25 6.878906 22.398438 7.628906 C 22.265625 7.75 22.136719 7.875 22.015625 8.007812 C 21.964844 8.066406 21.960938 8.152344 22.007812 8.21875 C 22.140625 8.390625 22.269531 8.5625 22.394531 8.730469 C 22.6875 9.125 22.957031 9.480469 23.210938 9.792969 C 23.28125 9.878906 23.414062 9.871094 23.476562 9.78125 C 24.054688 8.925781 25.164062 8.460938 26.328125 8.863281 C 26.976562 9.085938 27.492188 9.585938 27.730469 10.230469 C 28.355469 11.9375 27.101562 13.542969 25.476562 13.542969 C 25.300781 13.542969 25.125 13.523438 24.957031 13.488281 C 24.953125 13.484375 24.949219 13.484375 24.945312 13.484375 C 24.109375 13.371094 23.328125 12.988281 22.578125 12.320312 C 21.957031 11.765625 21.421875 11.089844 20.878906 10.367188 C 20.878906 10.375 20.875 10.386719 20.875 10.394531 C 20.808594 10.316406 20.707031 10.1875 20.582031 10.027344 C 20.226562 9.585938 19.695312 8.921875 19.417969 8.5625 C 18.917969 7.925781 18.347656 7.421875 17.726562 7.0625 C 16.667969 6.457031 15.492188 6.304688 14.269531 6.628906 C 12.695312 7.042969 11.445312 8.257812 11.019531 9.832031 C 10.566406 11.507812 11.027344 13.097656 12.015625 14.210938 C 12.019531 14.21875 12.027344 14.222656 12.03125 14.226562 L 19.597656 22.839844 C 19.804688 23.074219 20.101562 23.210938 20.414062 23.210938 C 20.417969 23.210938 20.417969 23.210938 20.421875 23.210938 C 20.734375 23.210938 21.03125 23.078125 21.238281 22.847656 L 28.773438 14.425781 C 28.777344 14.425781 28.777344 14.421875 28.78125 14.421875 C 28.800781 14.402344 28.820312 14.382812 28.835938 14.363281 C 29.675781 13.488281 30.140625 12.339844 30.140625 11.128906 Z M 20.304688 20.320312 L 16.453125 15.941406 C 16.371094 15.847656 16.417969 15.699219 16.542969 15.667969 C 17.257812 15.507812 17.921875 15.175781 18.480469 14.714844 C 18.550781 14.65625 18.5625 14.550781 18.5 14.480469 C 18.0625 13.96875 17.675781 13.457031 17.324219 12.976562 C 17.265625 12.898438 17.15625 12.886719 17.082031 12.953125 C 16.460938 13.488281 15.566406 13.714844 14.636719 13.386719 C 14 13.160156 13.488281 12.660156 13.257812 12.023438 C 12.632812 10.316406 13.882812 8.710938 15.507812 8.710938 C 16.140625 8.710938 16.71875 8.957031 17.148438 9.355469 C 17.269531 9.453125 17.390625 9.5625 17.511719 9.6875 C 17.972656 10.148438 18.414062 10.75 18.878906 11.390625 C 19.195312 11.820312 19.527344 12.277344 19.886719 12.722656 C 19.886719 12.71875 19.890625 12.714844 19.890625 12.710938 C 20.453125 13.382812 20.957031 13.890625 21.472656 14.3125 C 22.378906 15.050781 23.328125 15.507812 24.355469 15.699219 C 24.480469 15.722656 24.53125 15.875 24.445312 15.972656 L 20.554688 20.324219 C 20.488281 20.398438 20.371094 20.398438 20.304688 20.320312 Z M 20.304688 20.320312 " fill-opacity="1" fill-rule="nonzero"/></g></svg>